:SAMPLES-PER-SECOND 30
:FRAME-RANGE 1-663
:FULLY-SPECIFIED
:DEGREES
436
root  23.3459 39.0823 -18.4523 177.969 11.4454 177.777
RightUpLeg  -15.3997 -1.43434 -0.682806
RightLeg  -4.56166 -20.1841 4.59239
RightFoot  -0.571426 -1.05847 11.1543
RightToes  2.91037e-010 0 -3.6325e-017
Spine  4.97753 -2.57375 -7.75724
Spine1  0.771128 -3.37823 2.74773
HEad  15.2554 4.66483 2.25026
LeftShoulder1  1.8105 -1.67631 -28.8823
LeftArm  25.0325 -25.3514 -30.9244
LeftForeArm  -8.65887 -18.3642 -9.59852
LeftHand  0.117363 -1.81227 -1.74026
RightShoulder  5.62932 6.378 49.921
RightArm  26.0275 -7.96893 15.025
RightForeArm  9.95946 2.28094 18.2817
RightHand  0.26678 3.92902 3.05489
LeftUpLeg  10.751 11.2343 -0.371791
LeftLeg  9.37117 18.1985 -1.78872
LeftFoot  -18.2005 -0.531202 -10.6552
LeftToes  -4.9116e-011 5.71383e-011 -3.31847e-011
437
root  23.3949 39.0447 -19.4773 178.147 12.0458 178.799
RightUpLeg  -15.0616 -1.13107 0.920796
RightLeg  -2.21876 -21.3511 4.0326
RightFoot  3.06226 -0.454415 3.75983
RightToes  2.91037e-010 0 -3.6325e-017
Spine  5.94946 -2.81648 -5.69116
Spine1  -0.182671 -3.90533 4.14264
HEad  15.4628 5.15375 1.74013
LeftShoulder1  1.845 -1.70497 -29.3622
LeftArm  32.454 -23.5549 -32.3432
LeftForeArm  -10.5782 -20.9247 -7.24291
LeftHand  0.128038 -2.36874 -1.72873
RightShoulder  5.7854 6.55967 50.3731
RightArm  26.0542 -7.29435 13.8491
RightForeArm  10.0906 -0.108644 18.8991
RightHand  0.241257 3.793 2.78756
LeftUpLeg  12.3704 11.6465 0.9721
LeftLeg  9.903 17.9045 -1.7579
LeftFoot  -19.2105 -0.684502 -11.5897
LeftToes  -4.9116e-011 5.71383e-011 -3.31847e-011
438
root  23.5247 38.9905 -20.5708 178.572 12.5959 -179.536
RightUpLeg  -15.937 -0.795677 2.72994
RightLeg  1.28304 -21.1368 3.09005
RightFoot  8.12648 0.610398 -3.23015
RightToes  2.91037e-010 0 -3.6325e-017
Spine  5.99694 -2.97583 -2.80869
Spine1  0.00132262 -4.25284 5.20161
HEad  15.2887 5.22725 1.12336
LeftShoulder1  1.88516 -1.76559 -29.7237
LeftArm  36.8194 -21.7927 -33.9855
LeftForeArm  -9.52567 -22.0016 -6.26342
LeftHand  0.103447 -2.62125 -1.29641
RightShoulder  5.90739 6.65709 50.9328
RightArm  24.2475 -6.46233 12.6911
RightForeArm  11.4833 -0.942973 18.938
RightHand  0.195199 3.69462 2.23673
LeftUpLeg  13.8422 16.3934 4.43238
LeftLeg  11.5782 11.9606 -1.31926
LeftFoot  -20.0132 -0.879661 -13.1314
LeftToes  -4.9116e-011 5.71383e-011 -3.31847e-011
439
root  23.7072 38.9119 -21.763 178.937 13.9413 -177.606
RightUpLeg  -16.9553 -0.66256 4.95262
RightLeg  7.60161 -20.0438 1.08801
RightFoot  4.9319 0.487325 -3.16974
RightToes  2.91037e-010 0 -3.6325e-017
Spine  5.51702 -2.95607 0.737314
Spine1  0.885601 -4.06735 5.08459
HEad  14.407 5.26593 0.242936
LeftShoulder1  1.85974 -1.71707 -29.5662
LeftArm  40.0575 -19.3198 -36.0064
LeftForeArm  -8.68435 -22.7986 -5.71264
LeftHand  0.229937 -3.46509 -2.77178
RightShoulder  6.23805 7.13846 51.3401
RightArm  19.6831 -5.38017 11.8635
RightForeArm  14.7282 -1.93683 18.6559
RightHand  0.179244 3.55602 2.07452
LeftUpLeg  15.2732 24.0847 9.17997
LeftLeg  15.0327 4.19255 0.0655435
LeftFoot  -19.9636 -1.04748 -15.3967
LeftToes  -4.9116e-011 5.71383e-011 -3.31847e-011
440
root  23.939 38.9427 -22.9487 179.119 15.5231 -176.827
RightUpLeg  -16.5574 -2.29775 6.33517
RightLeg  10.9365 -16.7025 0.403582
RightFoot  2.68942 0.407302 -3.15789
RightToes  2.91037e-010 0 -3.6325e-017
Spine  5.06972 -2.83678 2.3592
Spine1  1.59698 -3.92246 5.47311
HEad  13.7295 5.58819 -0.439222
LeftShoulder1  1.80589 -1.59358 -29.3679
LeftArm  41.4991 -15.3912 -37.8471
LeftForeArm  -8.21194 -22.9691 -5.60957
LeftHand  0.218055 -3.09706 -2.75787
RightShoulder  6.7807 7.99933 51.619
RightArm  16.4396 -4.18078 11.6542
RightForeArm  16.5876 -2.6063 18.4403
RightHand  0.183134 3.45977 2.15517
LeftUpLeg  15.7368 26.7854 11.4599
LeftLeg  19.0435 2.04679 1.11575
LeftFoot  -17.6805 -0.998262 -19.7539
LeftToes  -4.9116e-011 5.71383e-011 -3.31847e-011
441
root  24.2631 39.1635 -24.1577 179.234 16.1635 -177.108
RightUpLeg  -14.7573 -2.17212 5.94154
RightLeg  11.226 -16.2193 0.721348
RightFoot  0.745131 0.324604 -3.01553
RightToes  2.91037e-010 0 -3.6325e-017
Spine  4.30102 -2.79216 2.10979
Spine1  1.82446 -4.0532 6.23127
HEad  13.8914 5.49615 -0.462368
LeftShoulder1  1.76117 -1.4949 -29.1678
LeftArm  43.3352 -11.0319 -39.3366
LeftForeArm  -9.63442 -22.9041 -5.71696
LeftHand  0.23632 -2.22458 -3.42925
RightShoulder  7.10854 8.49429 51.8736
RightArm  16.4105 -3.3894 11.971
RightForeArm  15.5185 -2.5886 18.495
RightHand  0.159287 3.20618 1.91592
LeftUpLeg  14.5792 25.0126 11.4039
LeftLeg  23.338 3.55994 2.01619
LeftFoot  -11.6676 -0.00262743 -24.891
LeftToes  -4.9116e-011 5.71383e-011 -3.31847e-011
442
root  24.57 39.1476 -25.1215 179.799 15.9369 -176.542
RightUpLeg  -14.33 -2.00365 6.25735
RightLeg  13.0056 -17.1099 0.510856
RightFoot  -1.67231 0.186467 -2.33726
RightToes  2.91037e-010 0 -3.6325e-017
Spine  4.1464 -2.95365 3.89131
Spine1  1.58809 -3.85641 6.21715
HEad  14.0404 4.65173 -0.204092
LeftShoulder1  1.78735 -1.54626 -29.3314
LeftArm  45.6572 -7.45992 -40.103
LeftForeArm  -10.5367 -21.8049 -6.52104
LeftHand  0.297748 -3.06324 -3.8672
RightShoulder  7.15323 8.51326 52.1105
RightArm  11.3747 -2.84104 12.6275
RightForeArm  18.8232 -4.09431 17.9138
RightHand  0.162645 3.58007 1.8525
LeftUpLeg  8.56808 20.7082 10.8012
LeftLeg  33.7613 4.57688 3.63871
LeftFoot  -3.84887 1.58243 -23.5189
LeftToes  -4.9116e-011 5.71383e-011 -3.31847e-011
443
root  24.7953 38.9934 -25.9762 179.995 15.7896 -175.702
RightUpLeg  -14.2777 -2.1302 7.09321
RightLeg  16.1055 -16.9592 -0.434309
RightFoot  -4.29252 0.0716697 -1.63562
RightToes  2.91037e-010 0 -3.6325e-017
Spine  5.07714 -3.00902 6.92623
Spine1  1.20195 -3.16093 5.2123
HEad  13.4399 3.43962 0.100014
LeftShoulder1  1.76852 -1.45662 -29.5951
LeftArm  45.695 -4.34599 -40.3112
LeftForeArm  -8.48785 -20.7488 -7.41158
LeftHand  0.42421 -4.02377 -4.96321
RightShoulder  7.13647 8.49652 52.0624
RightArm  13.6352 -2.74124 13.9729
RightForeArm  14.7492 -3.15205 18.1244
RightHand  0.115863 3.50936 1.26224
LeftUpLeg  2.20817 17.0836 10.8153
LeftLeg  44.4286 3.44502 4.00538
LeftFoot  6.12005 2.19156 -14.4513
LeftToes  -4.9116e-011 5.71383e-011 -3.31847e-011
444
root  25.012 38.8613 -26.853 179.837 15.9524 -175.172
RightUpLeg  -13.6223 -2.47966 7.76116
RightLeg  18.595 -15.8865 -1.18356
RightFoot  -6.69703 0.00265483 -1.18435
RightToes  2.91037e-010 0 -3.6325e-017
Spine  5.92652 -2.83016 9.52699
Spine1  1.25865 -2.22866 4.02732
HEad  12.3826 2.28324 0.674386
LeftShoulder1  1.72835 -1.28381 -30.0478
LeftArm  43.6955 -1.3157 -39.9139
LeftForeArm  -7.416 -19.7282 -8.40789
LeftHand  0.383057 -3.09489 -5.01781
RightShoulder  7.50918 9.15236 51.9431
RightArm  16.3553 -2.65828 15.3345
RightForeArm  12.716 0.869551 17.7816
RightHand  0.0932262 3.54969 0.959719
LeftUpLeg  -3.13955 14.33 10.9485
LeftLeg  53.2667 1.58649 2.74514
LeftFoot  6.6774 1.7699 -11.3911
LeftToes  -4.9116e-011 5.71383e-011 -3.31847e-011
445
root  25.2783 38.91 -27.8049 179.606 16.5487 -175.367
RightUpLeg  -11.9428 -2.89865 7.7816
RightLeg  19.0566 -14.7729 -1.46174
RightFoot  -8.35904 -0.0375834 -0.731546
RightToes  2.91037e-010 0 -3.6325e-017
Spine  6.06873 -2.27126 11.061
Spine1  1.32324 -1.12299 2.52006
HEad  11.7062 1.23619 1.11649
LeftShoulder1  1.66856 -1.0305 -30.7512
LeftArm  39.8691 1.22156 -38.89
LeftForeArm  -3.51604 -17.6423 -10.3714
LeftHand  0.4192 -4.82985 -4.46228
RightShoulder  8.16045 10.1349 52.365
RightArm  19.8212 -1.34304 15.9034
RightForeArm  11.5774 3.40332 17.4187
RightHand  0.0749045 3.74723 0.692428
LeftUpLeg  -7.94459 12.4431 10.4628
LeftLeg  58.869 0.600501 1.60623
LeftFoot  4.79286 1.4879 -10.6806
LeftToes  -4.9116e-011 5.71383e-011 -3.31847e-011
446
root  25.5532 38.9971 -28.7878 179.354 17.4409 -175.95
RightUpLeg  -10.0323 -3.46525 7.32218
RightLeg  18.9676 -13.1636 -1.40732
RightFoot  -9.87719 -0.0631498 -0.293251
RightToes  2.91037e-010 0 -3.6325e-017
Spine  6.02942 -1.45811 12.1371
Spine1  1.06022 0.123197 0.852091
HEad  11.6325 0.491571 1.36996
LeftShoulder1  1.60236 -0.803377 -31.1551
LeftArm  33.9738 3.98485 -37.7933
LeftForeArm  -6.79642 -15.0945 -12.876
LeftHand  0.124882 1.132 -3.62397
RightShoulder  8.7237 11.1056 52.2586
RightArm  21.0007 0.449205 16.7823
RightForeArm  13.287 4.04385 17.1942
RightHand  0.0734981 4.16928 0.616671
LeftUpLeg  -12.2064 11.0703 9.56805
LeftLeg  61.3277 0.00333 0.57647
LeftFoot  3.12814 1.24449 -9.93534
LeftToes  -4.9116e-011 5.71383e-011 -3.31847e-011
447
root  25.8527 39.1178 -29.8092 178.934 18.3321 -176.887
RightUpLeg  -7.68014 -4.36559 6.29423
RightLeg  18.2484 -11.3902 -0.948427
RightFoot  -11.2463 -0.0761463 -0.00435063
RightToes  2.91037e-010 0 -3.6325e-017
Spine  5.75746 -0.55499 12.4938
Spine1  0.852707 1.26676 -0.667377
HEad  12.092 0.0393325 1.0653
LeftShoulder1  1.51818 -0.556863 -31.3382
LeftArm  26.7406 6.7214 -36.648
LeftForeArm  -0.375238 -12.0414 -14.6988
LeftHand  0.289104 -1.8745 -4.47276
RightShoulder  9.32917 12.2461 51.8437
RightArm  21.0844 2.11267 17.5164
RightForeArm  14.259 4.28702 17.054
RightHand  0.0918266 4.48213 0.792325
LeftUpLeg  -15.6403 9.86469 8.2693
LeftLeg  60.6023 -0.149758 0.266521
LeftFoot  1.17386 1.01688 -9.3249
LeftToes  -4.9116e-011 5.71383e-011 -3.31847e-011
448
root  26.1939 39.257 -30.8301 178.653 19.0183 -177.678
RightUpLeg  -5.12536 -4.77777 5.44969
RightLeg  16.8657 -10.1152 -0.609219
RightFoot  -12.2073 -0.0814455 0.15841
RightToes  2.91037e-010 0 -3.6325e-017
Spine  5.52718 0.238775 12.7373
Spine1  0.192841 2.17732 -2.36471
HEad  12.9343 0.319411 0.392176
LeftShoulder1  1.41882 -0.286535 -31.3798
LeftArm  21.2918 9.84514 -35.0892
LeftForeArm  1.12299 -10.0953 -15.6546
LeftHand  0.288641 -1.51924 -4.73051
RightShoulder  9.98352 13.4739 51.4682
RightArm  20.2687 3.31539 17.9234
RightForeArm  14.3193 4.56886 16.878
RightHand  0.106903 4.47398 0.970777
LeftUpLeg  -18.4046 8.74642 7.21526
LeftLeg  57.1913 -0.490723 -0.319959
LeftFoot  -0.784239 0.891668 -9.58533
LeftToes  -4.9116e-011 5.71383e-011 -3.31847e-011
449
root  26.5616 39.4001 -31.829 178.143 19.705 -178.797
RightUpLeg  -2.41792 -5.08891 4.34091
RightLeg  15.3443 -9.02603 -0.564108
RightFoot  -13.1202 -0.0784031 0.6714
RightToes  2.91037e-010 0 -3.6325e-017
Spine  4.94793 1.0917 12.241
Spine1  0.277793 3.02562 -3.80916
HEad  13.2229 1.2068 -0.5229
LeftShoulder1  1.37241 -0.1426 -31.5836
LeftArm  19.3006 12.4359 -33.3449
LeftForeArm  1.52176 -8.98666 -16.1899
LeftHand  0.26284 -1.09603 -4.62145
RightShoulder  10.4912 14.4893 51.0327
RightArm  19.3277 4.77549 18.1437
RightForeArm  13.6046 4.98702 16.6939
RightHand  0.109929 4.39834 1.01907
LeftUpLeg  -20.0778 8.25713 5.6226
LeftLeg  50.7986 -0.365377 -0.0485149
LeftFoot  -1.02664 0.733795 -8.05407
LeftToes  -4.9116e-011 5.71383e-011 -3.31847e-011
450
root  26.9598 39.5321 -32.7877 177.908 20.1738 -179.625
RightUpLeg  0.304536 -4.97128 3.63032
RightLeg  13.266 -8.99791 -0.681594
RightFoot  -13.7576 -0.0635277 1.40515
RightToes  2.91037e-010 0 -3.6325e-017
Spine  4.70424 1.88356 11.2923
Spine1  -0.212771 3.64085 -4.67565
HEad  13.3236 2.25312 -1.45891
LeftShoulder1  1.33428 -0.0134825 -31.8801
LeftArm  20.0854 14.9876 -31.5178
LeftForeArm  -1.52677 -8.73261 -16.5587
LeftHand  0.128746 1.47123 -4.11847
RightShoulder  10.7656 15.1326 50.56
RightArm  17.452 6.02845 18.1271
RightForeArm  13.8327 5.15803 16.4684
RightHand  0.126602 4.37744 1.22061
LeftUpLeg  -20.9655 8.6063 4.43132
LeftLeg  42.0138 -0.705348 -0.306889
LeftFoot  -1.27383 0.726811 -8.15651
LeftToes  -4.9116e-011 5.71383e-011 -3.31847e-011
